<?xml version="1.0" encoding="iso-8859-1"?>
<!-- Generator: Adobe Illustrator 19.0.0, SVG Export Plug-In . SVG Version: 6.00 Build 0)  -->
<svg version="1.1" id="Layer_1" xmlns="http://www.w3.org/2000/svg" xmlns:xlink="http://www.w3.org/1999/xlink" x="0px" y="0px" viewBox="0 0 393.309 393.309" style="enable-background:new 0 0 393.309 393.309;" xml:space="preserve">
	<circle style="fill:#F0582F;" cx="196.655" cy="196.655" r="196.655" />
	<path style="fill:#E2C8A3;" d="M360.857,304.743l-9.762-9.762l-12.606-19.523c0,0-19.523-47.709-24.113-55.143
	c-4.59-7.499,4.331-9.762-22.626-40.21c-27.022-30.448-77.188-32.776-77.188-32.776l-24.824,6.335l-60.315-22.949
	c-54.044,50.554,35.168,81.067,31.289,87.079c-19.782,30.836-46.222-7.822-46.222-7.822l-12.671-9.18
	c-27.604,39.111,4.59,50.554,4.59,50.554s90.246,15.515,105.697,66.069c7.434,24.048-0.84,52.558-11.507,75.83
	C267.572,391.952,326.4,357.042,360.857,304.743z" />
	<path style="fill:#C6A071;" d="M265.051,192.646c0,0-30.772-18.036-69.107,5.56c0,0,47.903,44.347,65.551,31.935
	c17.519-12.347,9.956-15.127,18.036-15.127L265.051,192.646z" />
	<ellipse style="fill:#4F5565;" cx="205.899" cy="165.43" rx="5.56" ry="6.206" />
	<circle style="fill:#6EB1E1;" cx="150.238" cy="75.572" r="58.893" />
	<g transform="matrix(0.2889 -0.9574 0.9574 0.2889 -33.28 372.58)">

		<ellipse transform="matrix(2.553646e-006 1 -1 2.553646e-006 427.248 -247.5047)" style="fill:#FFFFFC;" cx="337.377" cy="89.872" rx="38.529" ry="58.893" />

		<ellipse transform="matrix(2.553646e-006 1 -1 2.553646e-006 427.248 -247.5047)" style="fill:#FBD303;" cx="337.377" cy="89.872" rx="14.093" ry="58.893" />
	</g>
	<rect x="205.893" y="284.156" transform="matrix(0.9442 -0.3293 0.3293 0.9442 -82.0337 107.2598)" style="fill:#8E342D;" width="139.439" height="23.272" />
	<g></g>
	<g></g>
	<g></g>
	<g></g>
	<g></g>
	<g></g>
	<g></g>
	<g></g>
	<g></g>
	<g></g>
	<g></g>
	<g></g>
	<g></g>
	<g></g>
	<g></g>
</svg>